<?xml version="1.0" encoding="utf-8"?>
<!-- Generator: Adobe Illustrator 16.0.0, SVG Export Plug-In . SVG Version: 6.00 Build 0)  -->
<!DOCTYPE svg PUBLIC "-//W3C//DTD SVG 1.1//EN" "http://www.w3.org/Graphics/SVG/1.1/DTD/svg11.dtd">
<svg version="1.1" id="Layer_1" xmlns="http://www.w3.org/2000/svg" xmlns:xlink="http://www.w3.org/1999/xlink" x="0px" y="0px"
	 width="220px" height="40px" viewBox="0 0 220 40" enable-background="new 0 0 220 40" xml:space="preserve">
<path fill="#00AFFF" d="M59.772,31.35c0,2.111-1.675,3.801-3.747,3.801h-23.96c-2.07,0-3.748-1.688-3.748-3.801V6.933
	c0-2.106,1.677-3.804,3.748-3.804h23.96c2.071,0,3.747,1.698,3.747,3.804V31.35z"/>
<path fill="#FFFFFF" d="M56.541,29.006c0,2.948-0.066,3.043-2.971,3.043H34.522c-2.899,0-2.982-0.068-2.982-3.043V9.622
	c0-2.905,0.049-3.045,2.982-3.045c4.762,0,19.047,0,19.047,0c2.917,0,2.971,0.104,2.971,3.045V29.006z"/>
<path fill="#00AFFF" d="M40.987,5.475c0.589,0,1.056,0.344,1.056,0.784v12.939c0,0.433-0.467,0.804-1.056,0.804h-1.045
	c-0.575,0-1.05-0.371-1.05-0.804V6.259c0-0.439,0.476-0.784,1.05-0.784H40.987z"/>
<path fill="#00AFFF" d="M45.71,14.801c0.381,0.402,0.456,0.95,0.169,1.256l-3.689,3.755c-0.292,0.302-0.841,0.222-1.229-0.186
	l-0.662-0.657c-0.386-0.403-0.458-0.951-0.159-1.254l3.682-3.759c0.281-0.301,0.843-0.217,1.216,0.182L45.71,14.801z"/>
<rect x="42.043" y="2.707" fill="#FFFFFF" width="4.968" height="5.536"/>
<path fill="#00AFFF" d="M49.104,5.475c0.591,0,1.06,0.344,1.06,0.784v12.939c0,0.433-0.469,0.804-1.06,0.804h-1.046
	c-0.568,0-1.046-0.371-1.046-0.804V6.259c0-0.439,0.479-0.784,1.046-0.784H49.104z"/>
<path fill="#00AFFF" d="M48.09,19.631c-0.383,0.398-0.941,0.479-1.225,0.185l-3.676-3.758c-0.305-0.308-0.232-0.853,0.161-1.257
	l0.657-0.661c0.384-0.399,0.937-0.479,1.229-0.182l3.688,3.761c0.289,0.296,0.213,0.852-0.167,1.249L48.09,19.631z"/>
<path fill="#00AFFF" d="M25.238,10.08c0,0.942-0.879,1.702-1.958,1.702H5.716c-1.087,0-1.96-0.76-1.96-1.702V9.025
	c0-0.942,0.873-1.696,1.96-1.696h17.565c1.078,0,1.958,0.753,1.958,1.696v1.055H25.238z"/>
<path fill="#00AFFF" d="M25.238,16.906c0,0.941-0.88,1.7-1.958,1.7H11.727c-1.072,0-1.952-0.758-1.952-1.7v-1.055
	c0-0.942,0.88-1.696,1.952-1.696h11.554c1.078,0,1.958,0.753,1.958,1.696v1.055H25.238z"/>
<path fill="#00AFFF" d="M25.238,23.818c0,0.918-0.803,1.697-1.783,1.697h-6.69c-0.977,0-1.782-0.779-1.782-1.697v-1.055
	c0-0.943,0.806-1.697,1.782-1.697h6.69c0.98,0,1.783,0.754,1.783,1.697V23.818z"/>
<text transform="matrix(1 0 0 1 70.249 31.3623)" fill="#00AFFF" font-family="'Rubik-Regular'" font-size="31.4503">instacrate</text>
</svg>
