<?xml version="1.0" encoding="utf-8"?>
<!-- Generator: Adobe Illustrator 16.0.0, SVG Export Plug-In . SVG Version: 6.00 Build 0)  -->
<!DOCTYPE svg PUBLIC "-//W3C//DTD SVG 1.1//EN" "http://www.w3.org/Graphics/SVG/1.1/DTD/svg11.dtd">
<svg version="1.1" id="Layer_1" xmlns="http://www.w3.org/2000/svg" xmlns:xlink="http://www.w3.org/1999/xlink" x="0px" y="0px"
	 width="220px" height="40px" viewBox="0 0 220 40" enable-background="new 0 0 220 40" xml:space="preserve">
<path fill="#00AFFF" d="M59.772,31.35c0,2.111-1.675,3.801-3.747,3.801h-23.96c-2.07,0-3.748-1.688-3.748-3.801V6.933
	c0-2.106,1.677-3.804,3.748-3.804h23.96c2.071,0,3.747,1.698,3.747,3.804V31.35z"/>
<path fill="#FFFFFF" d="M56.312,28.653c0,2.894-0.065,2.986-2.916,2.986H34.703c-2.846,0-2.926-0.066-2.926-2.986V9.629
	c0-2.852,0.048-2.989,2.926-2.989c4.674,0,18.694,0,18.694,0c2.863,0,2.916,0.102,2.916,2.989V28.653z"/>
<path fill="#00AFFF" d="M40.503,5.475c0.589,0,1.056,0.344,1.056,0.784v12.939c0,0.433-0.467,0.804-1.056,0.804h-1.045
	c-0.575,0-1.05-0.371-1.05-0.804V6.259c0-0.439,0.476-0.784,1.05-0.784H40.503z"/>
<path fill="#00AFFF" d="M45.227,14.801c0.381,0.402,0.456,0.95,0.169,1.256l-3.689,3.755c-0.292,0.302-0.841,0.222-1.229-0.186
	l-0.662-0.657c-0.386-0.403-0.458-0.951-0.159-1.254l3.682-3.759c0.281-0.301,0.843-0.217,1.216,0.182L45.227,14.801z"/>
<rect x="41.56" y="2.707" fill="#FFFFFF" width="4.969" height="5.536"/>
<path fill="#00AFFF" d="M48.621,5.475c0.591,0,1.06,0.344,1.06,0.784v12.939c0,0.433-0.469,0.804-1.06,0.804h-1.046
	c-0.568,0-1.046-0.371-1.046-0.804V6.259c0-0.439,0.479-0.784,1.046-0.784H48.621z"/>
<path fill="#00AFFF" d="M47.606,19.631c-0.383,0.398-0.941,0.479-1.225,0.185l-3.676-3.758c-0.305-0.308-0.232-0.853,0.161-1.257
	l0.657-0.661c0.384-0.399,0.937-0.479,1.229-0.182l3.688,3.761c0.289,0.296,0.213,0.852-0.167,1.249L47.606,19.631z"/>
<text transform="matrix(1 0 0 1 70.249 31.3623)" fill="#00AFFF" font-family="'Rubik-Regular'" font-size="31.4503">instacrate</text>
<path fill="#00AFFF" d="M25.238,10.311c0,0.553-0.448,1-1,1H7.821c-0.552,0-1-0.447-1-1V8.8c0-0.553,0.448-1,1-1h16.417
	c0.552,0,1,0.447,1,1V10.311z"/>
<path fill="#00AFFF" d="M25.239,16.286c0,0.552-0.448,1-1,1H11.917c-0.552,0-1-0.448-1-1v-1.511c0-0.552,0.448-1,1-1h12.322
	c0.552,0,1,0.448,1,1V16.286z"/>
<path fill="#00AFFF" d="M25.239,21.88c0,0.552-0.448,1-1,1H16.5c-0.552,0-1-0.448-1-1v-1.512c0-0.552,0.448-1,1-1h7.739
	c0.552,0,1,0.448,1,1V21.88z"/>
</svg>
