<?xml version="1.0" encoding="utf-8"?>
<!-- Generator: Adobe Illustrator 16.0.0, SVG Export Plug-In . SVG Version: 6.00 Build 0)  -->
<!DOCTYPE svg PUBLIC "-//W3C//DTD SVG 1.1//EN" "http://www.w3.org/Graphics/SVG/1.1/DTD/svg11.dtd">
<svg version="1.1" id="Layer_1" xmlns="http://www.w3.org/2000/svg" xmlns:xlink="http://www.w3.org/1999/xlink" x="0px" y="0px"
	 width="220px" height="40px" viewBox="0 0 220 40" enable-background="new 0 0 220 40" xml:space="preserve">
<path fill="#00AFFF" d="M59.772,31.35c0,2.111-1.675,3.801-3.747,3.801h-23.96c-2.07,0-3.748-1.688-3.748-3.801V6.933
	c0-2.106,1.677-3.804,3.748-3.804h23.96c2.071,0,3.747,1.698,3.747,3.804V31.35z"/>
<path fill="#FFFFFF" d="M56.312,28.653c0,2.894-0.065,2.986-2.916,2.986H34.703c-2.846,0-2.926-0.066-2.926-2.986V9.629
	c0-2.852,0.048-2.989,2.926-2.989c4.674,0,18.694,0,18.694,0c2.863,0,2.916,0.102,2.916,2.989V28.653z"/>
<path fill="#00AFFF" d="M40.837,5.475c0.534,0,0.957,0.344,0.957,0.784v12.939c0,0.433-0.423,0.804-0.957,0.804h-0.946
	c-0.521,0-0.951-0.371-0.951-0.804V6.259c0-0.439,0.431-0.784,0.951-0.784H40.837z"/>
<path fill="#00AFFF" d="M45.114,14.801c0.345,0.402,0.413,0.95,0.153,1.256l-3.341,3.755c-0.264,0.302-0.761,0.222-1.113-0.186
	l-0.6-0.657c-0.349-0.403-0.415-0.951-0.144-1.254l3.334-3.759c0.254-0.301,0.764-0.217,1.101,0.182L45.114,14.801z"/>
<rect x="41.794" y="2.707" fill="#FFFFFF" width="4.5" height="5.536"/>
<path fill="#00AFFF" d="M48.188,5.475c0.535,0,0.96,0.344,0.96,0.784v12.939c0,0.433-0.425,0.804-0.96,0.804h-0.947
	c-0.514,0-0.947-0.371-0.947-0.804V6.259c0-0.439,0.434-0.784,0.947-0.784H48.188z"/>
<path fill="#00AFFF" d="M47.27,19.631c-0.347,0.398-0.852,0.479-1.109,0.185l-3.329-3.758c-0.276-0.308-0.21-0.853,0.146-1.257
	l0.595-0.661c0.348-0.399,0.849-0.479,1.113-0.182l3.34,3.761c0.262,0.296,0.193,0.852-0.151,1.249L47.27,19.631z"/>
<text transform="matrix(1 0 0 1 70.249 31.3623)" fill="#00AFFF" font-family="'Rubik-Regular'" font-size="31.4503">instacrate</text>
<path fill="#00AFFF" d="M25.238,10.311c0,0.553-0.448,1-1,1H7.821c-0.552,0-1-0.447-1-1V8.8c0-0.553,0.448-1,1-1h16.417
	c0.552,0,1,0.447,1,1V10.311z"/>
<path fill="#00AFFF" d="M25.239,16.286c0,0.552-0.448,1-1,1H11.917c-0.552,0-1-0.448-1-1v-1.511c0-0.552,0.448-1,1-1h12.322
	c0.552,0,1,0.448,1,1V16.286z"/>
<path fill="#00AFFF" d="M25.239,21.88c0,0.552-0.448,1-1,1H16.5c-0.552,0-1-0.448-1-1v-1.512c0-0.552,0.448-1,1-1h7.739
	c0.552,0,1,0.448,1,1V21.88z"/>
</svg>
